<svg xmlns="http://www.w3.org/2000/svg" viewBox="0 0 312.31 52.77"><defs><style>.cls-1{fill:#231815;}</style></defs><title>logo_copicink</title><g id="レイヤー_2" data-name="レイヤー 2"><g id="PC_ink"><path class="cls-1" d="M208.38,27V23.15c0-5.09-4-9.14-10.12-9.2h-.11a93.33,93.33,0,0,0-10.75-.57c-5.86,0-11.22.22-15.29.58h.44a9.19,9.19,0,0,0-8.85,8.58v-.3c-.27,3-.44,6.78-.44,10.82s.17,7.82.44,10.85v-.28a9.22,9.22,0,0,0,8.94,8.55h-.49c4.06.35,9.41.58,15.25.58a112.34,112.34,0,0,0,12.38-.63h-.22c5.39-.53,8.82-4.42,8.82-9.13V39.15h-5.2V42c0,2.7-1.42,4.69-6.39,5H197a74.28,74.28,0,0,1-9.61.52c-5.43,0-10.42-.19-14.35-.51h.66a5,5,0,0,1-4.82-4.94v.36c-.21-2.76-.34-6-.34-9.42s.13-6.78.34-9.57v.4a5,5,0,0,1,4.44-4.79h-.24c3.92-.32,8.91-.5,14.31-.5a56.87,56.87,0,0,1,8.8.44h.08c5.36.23,6.9,2.27,6.9,5.06V27Z"/><polygon class="cls-1" points="158.26 13.77 137.01 52.3 131.57 52.3 152.83 13.77 158.26 13.77"/><path class="cls-1" d="M162.47,11.49a5.75,5.75,0,1,0-5.74-5.75A5.74,5.74,0,0,0,162.47,11.49Z"/><polygon class="cls-1" points="165.56 13.77 144.3 52.3 138.88 52.3 160.12 13.77 165.56 13.77"/><path class="cls-1" d="M103.19,18.56h27.16s5-.24,5.6,3.89a21.36,21.36,0,0,1,0,6.82s-.16,4.13-5.68,4H103.19V18.56l-5.44-4.79v38.6H103V38H129.7c9.74.17,10.71-5.6,10.71-5.6a28.88,28.88,0,0,0,0-12.73c-1.62-6.48-10.71-5.92-10.71-5.92H97.75Z"/><path class="cls-1" d="M45.11,27V23.15c0-5.09-4-9.14-10.11-9.2h-.11a93.33,93.33,0,0,0-10.75-.57c-5.87,0-11.23.22-15.28.58h.42A9.18,9.18,0,0,0,.44,22.55v-.3C.17,25.29,0,29,0,33.07s.17,7.82.45,10.85v-.28a9.19,9.19,0,0,0,8.92,8.55H8.89c4.06.35,9.4.58,15.25.58a111.65,111.65,0,0,0,12.36-.63h-.21c5.39-.53,8.82-4.42,8.82-9.13V39.15h-5.2V42c0,2.7-1.42,4.69-6.4,5h.23a74,74,0,0,1-9.6.52c-5.43,0-10.42-.19-14.35-.51h.65a5,5,0,0,1-4.81-4.94v.36c-.21-2.76-.33-6-.33-9.42s.12-6.78.33-9.57v.4a5,5,0,0,1,4.42-4.79H9.82c3.94-.32,8.9-.5,14.32-.5a57.27,57.27,0,0,1,8.81.44H33c5.35.23,6.89,2.27,6.89,5.06V27Z"/><path class="cls-1" d="M95.61,33.07c0-4.05-.17-7.8-.44-10.84v.28a9.19,9.19,0,0,0-9-8.55h.51c-4-.36-9.4-.58-15.25-.58s-11.23.22-15.3.58h.48a9.19,9.19,0,0,0-8.88,8.6v-.31c-.28,3-.45,6.78-.45,10.82s.17,7.82.46,10.85v-.29a9.16,9.16,0,0,0,8.94,8.56h-.5c4.05.35,9.4.58,15.25.58s11.21-.23,15.26-.58h-.49a9.2,9.2,0,0,0,8.93-8.55v.28C95.44,40.89,95.61,37.13,95.61,33.07ZM90,42.44V42.1a5,5,0,0,1-4.84,5h.67c-3.93.32-8.94.51-14.36.51S61,47.39,57.11,47.07h.66A5,5,0,0,1,53,42.13v.36c-.22-2.76-.33-6-.33-9.42s.13-6.78.34-9.57v.4a5,5,0,0,1,4.43-4.79h-.24c3.92-.32,8.91-.5,14.32-.5s10.39.18,14.32.5h-.26A5.05,5.05,0,0,1,90,24v-.33c.19,2.74.32,5.94.32,9.36S90.19,39.7,90,42.44Z"/><path class="cls-1" d="M224,11.49a5.75,5.75,0,1,0-5.74-5.75A5.74,5.74,0,0,0,224,11.49Z"/><path class="cls-1" d="M265.36,16.55a15.6,15.6,0,0,0-10.67-3.94,19.9,19.9,0,0,0-10.14,2.86h0l-8.77-1.71V52.37h8.77V30.61c0-6.3,6-9.23,10.14-9.23A6.87,6.87,0,0,1,259.4,23c1.3,1.2,2,3.08,2,5.58V52.3h8.77V28.57C270.13,22.28,267.54,18.56,265.36,16.55Z"/><rect class="cls-1" x="219.58" y="13.76" width="8.77" height="38.61"/><polygon class="cls-1" points="286.33 40.51 290.51 36.21 301.56 52.3 312.21 52.3 296.74 29.8 312.31 13.77 300.08 13.77 286.33 27.92 286.33 0 277.56 0 277.56 52.37 286.33 52.37 286.33 40.51"/></g></g></svg>